<svg width="160" height="160" viewBox="0 0 160 160" fill="none" xmlns="http://www.w3.org/2000/svg">
<path d="M160 0H80V160H160V0Z" fill="white"/>
<rect y="150" width="160" height="10" fill="black"/>
<rect width="160" height="10" fill="black"/>
<rect x="150" width="10" height="160" fill="black"/>
<path d="M80 0H0V160H80V0Z" fill="black"/>
<path d="M138.992 79.4674C138.992 87.2937 138.096 93.712 136.304 98.7223C134.512 103.733 132.128 107.609 129.152 110.352C126.176 113.095 122.864 115.015 119.216 116.112C115.568 117.173 111.904 117.703 108.224 117.703H92V42H107.12C111.152 42 115.056 42.4937 118.832 43.4811C122.64 44.4686 126.048 46.2971 129.056 48.9669C132.096 51.6 134.512 55.3851 136.304 60.3223C138.096 65.2229 138.992 71.6046 138.992 79.4674ZM127.28 79.4674C127.28 73.4331 126.752 68.5874 125.696 64.9303C124.672 61.2731 123.296 58.4937 121.568 56.592C119.84 54.6903 117.904 53.4103 115.76 52.752C113.616 52.0937 111.44 51.7646 109.232 51.7646H103.136V108.048H109.28C111.584 108.048 113.808 107.627 115.952 106.786C118.096 105.945 120.016 104.482 121.712 102.398C123.44 100.313 124.8 97.424 125.792 93.7303C126.784 90 127.28 85.2457 127.28 79.4674Z" fill="black"/>
<path d="M50.736 117.703V83.3074H29.136V117.703H18V42H29.136V72.8297H50.736V42H61.872V117.703H50.736Z" fill="white"/>
</svg>
