<svg width="250" height="250" viewBox="0 0 250 250" fill="none" xmlns="http://www.w3.org/2000/svg">
<path d="M64.456 177.728C58.12 177.728 51.976 176.528 46.024 174.128C40.168 171.728 34.984 168.32 30.472 163.904L40.264 152.528C43.624 155.696 47.464 158.288 51.784 160.304C56.104 162.224 60.424 163.184 64.744 163.184C70.12 163.184 74.2 162.08 76.984 159.872C79.768 157.664 81.16 154.736 81.16 151.088C81.16 149.168 80.776 147.536 80.008 146.192C79.336 144.848 78.328 143.696 76.984 142.736C75.736 141.68 74.2 140.72 72.376 139.856C70.648 138.992 68.728 138.128 66.616 137.264L53.656 131.648C51.352 130.688 49.048 129.488 46.744 128.048C44.536 126.608 42.52 124.88 40.696 122.864C38.872 120.848 37.384 118.496 36.232 115.808C35.176 113.12 34.648 110.048 34.648 106.592C34.648 102.848 35.416 99.392 36.952 96.224C38.584 92.96 40.792 90.128 43.576 87.728C46.36 85.328 49.672 83.456 53.512 82.112C57.448 80.768 61.72 80.096 66.328 80.096C71.8 80.096 77.08 81.2 82.168 83.408C87.256 85.52 91.624 88.4 95.272 92.048L86.776 102.704C83.704 100.208 80.536 98.24 77.272 96.8C74.008 95.36 70.36 94.64 66.328 94.64C61.816 94.64 58.216 95.648 55.528 97.664C52.84 99.584 51.496 102.272 51.496 105.728C51.496 107.552 51.88 109.136 52.648 110.48C53.512 111.728 54.616 112.88 55.96 113.936C57.4 114.896 59.032 115.808 60.856 116.672C62.68 117.44 64.552 118.208 66.472 118.976L79.288 124.304C82.072 125.456 84.616 126.8 86.92 128.336C89.224 129.872 91.192 131.648 92.824 133.664C94.552 135.68 95.896 138.032 96.856 140.72C97.816 143.312 98.296 146.336 98.296 149.792C98.296 153.632 97.528 157.232 95.992 160.592C94.456 163.952 92.2 166.928 89.224 169.52C86.344 172.016 82.792 174.032 78.568 175.568C74.44 177.008 69.736 177.728 64.456 177.728ZM113.981 176V105.296H127.661L128.813 114.944H129.389C132.365 111.776 135.581 109.088 139.037 106.88C142.589 104.672 146.573 103.568 150.989 103.568C156.173 103.568 160.301 104.672 163.373 106.88C166.541 109.088 168.941 112.208 170.573 116.24C173.933 112.592 177.437 109.568 181.085 107.168C184.733 104.768 188.813 103.568 193.325 103.568C200.813 103.568 206.333 106.016 209.885 110.912C213.437 115.712 215.213 122.624 215.213 131.648V176H198.509V133.808C198.509 127.952 197.597 123.824 195.773 121.424C194.045 119.024 191.357 117.824 187.709 117.824C183.293 117.824 178.349 120.752 172.877 126.608V176H156.317V133.808C156.317 127.952 155.405 123.824 153.581 121.424C151.853 119.024 149.117 117.824 145.373 117.824C140.957 117.824 136.013 120.752 130.541 126.608V176H113.981Z" fill="#FF3D00"/>
<rect width="250" height="14" fill="#FF3D00"/>
<rect y="236" width="250" height="14" fill="#FF3D00"/>
<rect x="14" width="250" height="14" transform="rotate(90 14 0)" fill="#FF3D00"/>
<rect x="250" width="250" height="14" transform="rotate(90 250 0)" fill="#FF3D00"/>
</svg>
